<mxfile host="app.diagrams.net" modified="2022-05-01T20:07:03.611Z" agent="5.0 (Windows NT 10.0; Win64; x64) AppleWebKit/537.36 (KHTML, like Gecko) Chrome/100.0.4896.127 Safari/537.36" etag="ueNWUN8Up5_ppKmTrK2J" version="17.5.0" type="github">
  <diagram id="FvZqCVDbc93mBHRVu_CE" name="Page-1">
    <mxGraphModel dx="1481" dy="739" grid="1" gridSize="10" guides="1" tooltips="1" connect="1" arrows="1" fold="1" page="1" pageScale="1" pageWidth="850" pageHeight="1100" math="1" shadow="0">
      <root>
        <mxCell id="0" />
        <mxCell id="1" parent="0" />
        <mxCell id="YhlvGyqlCeJ7jM0D8lfb-1" value="&lt;font style=&quot;font-size: 40px&quot;&gt;$$\frac{\partial PROMISE}{\partial OPPORTUNITY}$$&lt;/font&gt;" style="text;html=1;align=center;verticalAlign=middle;resizable=0;points=[];autosize=1;strokeColor=none;fillColor=none;" parent="1" vertex="1">
          <mxGeometry x="-130" y="190" width="970" height="30" as="geometry" />
        </mxCell>
      </root>
    </mxGraphModel>
  </diagram>
</mxfile>
